<svg width="670" height="502" viewBox="0 0 670 502" fill="none" xmlns="http://www.w3.org/2000/svg">
<path d="M605.795 493.358C677.03 439.193 708.755 288.998 593.09 215.348C516.515 166.598 468.89 194.408 382.745 162.158C277.58 122.798 261.905 3.87804 133.985 62.393C66.2151 93.383 19.2351 180.728 10.9701 279.998C2.87006 377.213 37.3251 443.918 107.735 489.563C273.08 496.598 438.755 495.323 605.795 493.358Z" fill="#FFE2D5"/>
<path d="M313.148 66.1399C302.389 109.34 342.344 152.105 384.437 169.835C426.532 187.58 474.802 185.465 519.898 177.005C539.356 173.36 559.358 168.23 574.474 155.825C589.591 143.42 598.354 121.88 590.069 104.48C582.758 89.1349 564.959 81.2749 547.991 77.2399C531.023 73.2049 513.001 71.5549 497.884 63.0649C483.55 55.0099 473.381 41.6749 460.915 31.1149C437.881 11.6299 405.524 1.96991 375.578 8.13491C345.616 14.2999 322.294 29.4199 313.148 66.1399Z" fill="#FFE2D5"/>
<path d="M635.443 264.839V232.157H623.05C621.562 226.443 619.292 221.055 616.385 216.092L625.148 207.315L602.036 184.203L593.26 192.966C588.298 190.059 582.91 187.791 577.195 186.302V173.91H544.513V186.302C538.799 187.791 533.411 190.059 528.448 192.966L519.671 184.203L496.559 207.315L505.322 216.092C502.415 221.054 500.161 226.442 498.658 232.157H486.266V264.839H498.658C500.161 270.552 502.415 275.94 505.322 280.904L496.559 289.68L519.671 312.792L528.448 304.029C533.41 306.936 538.798 309.191 544.513 310.694V323.085H577.195V310.694C582.908 309.191 588.296 306.936 593.26 304.029L602.036 312.792L625.148 289.68L616.385 280.904C619.292 275.942 621.56 270.554 623.05 264.839H635.443ZM560.864 276.813C545.222 276.813 532.54 264.131 532.54 248.489C532.54 232.863 545.222 220.182 560.864 220.182C576.49 220.182 589.171 232.863 589.171 248.489C589.171 264.132 576.49 276.813 560.864 276.813Z" fill="#F9A07B"/>
<path d="M536.683 346.725L530.465 330.518L524.32 332.876C522.494 330.326 520.345 328.085 517.958 326.177L520.634 320.157L504.776 313.092L502.091 319.107C499.078 318.609 495.974 318.51 492.857 318.858L490.499 312.713L474.292 318.93L476.65 325.076C474.1 326.901 471.859 329.051 469.951 331.437L463.931 328.761L456.866 344.619L462.881 347.304C462.385 350.318 462.292 353.42 462.632 356.538L456.487 358.896L462.704 375.104L468.85 372.746C470.683 375.294 472.825 377.537 475.211 379.445L472.535 385.464L488.393 392.529L491.078 386.514C494.092 387.012 497.194 387.104 500.312 386.763L502.67 392.909L518.878 386.691L516.52 380.546C519.068 378.713 521.311 376.571 523.219 374.184L529.238 376.86L536.303 361.002L530.288 358.317C530.786 355.304 530.885 352.2 530.537 349.083L536.683 346.725ZM501.976 366.854C494.219 369.83 485.516 365.954 482.54 358.196C479.567 350.447 483.443 341.745 491.201 338.769C498.95 335.796 507.652 339.674 510.625 347.421C513.601 355.178 509.725 363.881 501.976 366.854Z" stroke="#F9A07B" stroke-miterlimit="10"/>
<path d="M483.58 289.875L479.378 278.924L475.226 280.517C473.993 278.793 472.54 277.28 470.927 275.99L472.735 271.922L462.019 267.149L460.204 271.214C458.167 270.878 456.07 270.81 453.964 271.046L452.371 266.894L441.419 271.095L443.012 275.247C441.289 276.48 439.775 277.934 438.485 279.545L434.417 277.737L429.644 288.453L433.709 290.268C433.373 292.305 433.31 294.401 433.541 296.508L429.389 298.101L433.591 309.053L437.743 307.46C438.982 309.182 440.429 310.697 442.042 311.987L440.234 316.055L450.95 320.828L452.765 316.763C454.802 317.099 456.898 317.162 459.005 316.931L460.598 321.083L471.55 316.881L469.957 312.729C471.679 311.492 473.194 310.043 474.482 308.432L478.55 310.239L483.323 299.523L479.258 297.708C479.594 295.671 479.662 293.574 479.426 291.468L483.58 289.875ZM460.129 303.474C454.888 305.484 449.008 302.865 446.996 297.624C444.988 292.388 447.607 286.509 452.848 284.498C458.083 282.489 463.963 285.108 465.971 290.345C467.984 295.586 465.364 301.466 460.129 303.474Z" stroke="#F9A07B" stroke-miterlimit="10"/>
<path d="M479.767 98.1317C479.767 114.554 472.091 129.192 460.15 138.651C451.357 145.629 440.239 149.769 428.128 149.769C416.048 149.769 404.929 145.629 396.106 138.651C384.149 129.192 376.489 114.554 376.489 98.1317C376.489 69.6137 399.61 46.4927 428.128 46.4927C456.646 46.4927 479.767 69.6137 479.767 98.1317Z" fill="#F44946" stroke="#F44946" stroke-miterlimit="10"/>
<path d="M353.915 225.428V199.928C353.915 192.968 359.555 187.328 366.515 187.328H446.855C453.815 187.328 459.455 192.968 459.455 199.928V225.428C459.455 232.388 453.815 238.028 446.855 238.028H366.53C359.57 238.043 353.915 232.388 353.915 225.428Z" fill="#F44946"/>
<path d="M387.845 224.093L348.965 261.968L411.98 230.123" fill="#F44946"/>
<path d="M155.614 189.331C167.19 164.454 156.407 134.902 131.529 123.326C106.652 111.75 77.1002 122.534 65.5243 147.411C53.9484 172.289 64.7316 201.84 89.6092 213.416C114.487 224.992 144.038 214.209 155.614 189.331Z" fill="#F44946"/>
<path d="M92.5237 197.077L91.9417 189.442L98.2642 185.122L105.167 188.436L105.748 196.071L99.4266 200.392L92.5237 197.077Z" fill="#F44946"/>
<path d="M116.288 147.582L116.702 137.874L124.018 131.479L130.921 134.794L130.507 144.502L123.19 150.895L116.288 147.582Z" fill="#F44946"/>
<path d="M145.061 195.101C146.836 194.277 175.34 195.578 175.34 195.578L154.793 176.714L145.061 195.101Z" fill="#F44946"/>
<path d="M270.851 84.3641C281.557 59.6131 270.172 30.8693 245.421 20.1631C220.67 9.45685 191.926 20.8424 181.22 45.5935C170.514 70.3445 181.899 99.0883 206.65 109.794C231.401 120.501 260.145 109.115 270.851 84.3641Z" fill="#F44946"/>
<path d="M358.61 395.618C355.715 350.978 375.245 304.778 408.14 278.348C409.16 323.213 389.825 368.618 358.61 395.618Z" fill="#F9A07B"/>
<path d="M402.77 290.363C388.91 316.193 376.925 343.223 366.965 371.108C354.86 404.963 345.335 440.933 324.605 469.313" stroke="#FF5538" stroke-miterlimit="10" stroke-linecap="round"/>
<path d="M348.23 423.698C364.88 386.453 397.925 358.313 434.36 350.348C418.85 390.263 383.96 420.713 348.23 423.698Z" fill="#F9A07B"/>
<path d="M425.42 358.553C400.535 380.453 375.23 401.738 349.505 422.393" stroke="#FF5538" stroke-miterlimit="10" stroke-linecap="round"/>
<path d="M338.405 456.143C360.65 422.918 401.69 405.578 435.65 415.058C410.675 447.863 369.545 465.248 338.405 456.143Z" fill="#F9A07B"/>
<path d="M427.505 417.458C398.345 435.698 366.89 449.168 334.46 457.268" stroke="#FF5538" stroke-miterlimit="10" stroke-linecap="round"/>
<path d="M350.42 412.403C357.53 374.993 346.865 333.293 323.12 305.708C313.385 342.473 322.67 385.553 350.42 412.403Z" fill="#F9A07B"/>
<path d="M325.565 315.248C330.245 350.048 338.57 382.643 351.47 414.503" stroke="#FF5538" stroke-miterlimit="10" stroke-linecap="round"/>
<path d="M338.21 444.263C335.18 405.803 315.47 369.683 286.64 349.748C288.305 370.118 293.72 389.753 302.315 407.603C312.2 428.108 326.72 441.113 338.21 444.263Z" fill="#F9A07B"/>
<path d="M290.915 357.533C302.255 389.603 318.575 419.333 338.93 445.073" stroke="#FF5538" stroke-miterlimit="10" stroke-linecap="round"/>
<path d="M560.855 435.038C576.59 394.103 612.785 360.893 652.7 350.783C635.21 391.163 599.51 423.713 560.855 435.038Z" fill="#F9A07B"/>
<path d="M643.025 359.288C620.195 376.643 598.505 395.828 578.285 416.603C553.715 441.833 530.54 469.973 500.585 486.803" stroke="#FF5538" stroke-miterlimit="10" stroke-linecap="round"/>
<path d="M540.17 455.813C570.155 429.428 610.895 417.848 646.355 425.618C616.295 454.853 572.975 467.738 540.17 455.813Z" fill="#F9A07B"/>
<path d="M635.09 429.293C604.115 438.653 573.02 447.278 541.82 455.183" stroke="#FF5538" stroke-miterlimit="10" stroke-linecap="round"/>
<path d="M518.18 480.713C551.465 460.193 594.845 461.498 620.975 483.803C585.455 502.823 541.97 501.518 518.18 480.713Z" fill="#F9A07B"/>
<path d="M612.8 482.603C579.56 486.953 546.215 486.113 514.25 480.098" stroke="#FF5538" stroke-miterlimit="10" stroke-linecap="round"/>
<path d="M546.74 446.648C568.355 416.228 576.02 374.723 566.345 340.463C542.66 369.233 533.21 411.398 546.74 446.648Z" fill="#F9A07B"/>
<path d="M564.59 349.943C554.45 382.853 548.465 415.283 546.815 448.943" stroke="#FF5538" stroke-miterlimit="10" stroke-linecap="round"/>
<path d="M522.89 470.048C535.97 434.558 533.36 394.328 516.05 364.808C509.18 383.633 505.91 403.328 506.195 422.738C506.51 445.028 514.01 462.548 522.89 470.048Z" fill="#F9A07B"/>
<path d="M516.62 373.478C513.5 406.673 515.735 439.823 523.175 471.053" stroke="#FF5538" stroke-miterlimit="10" stroke-linecap="round"/>
<path d="M114.901 363.467C98.8595 314.404 54.095 274.76 2.01953 263.51C23.9135 305.956 63.623 339.737 114.901 363.467Z" fill="#F9A07B"/>
<path d="M117.617 371.078C82.4795 351.207 38.4545 346.826 0.290039 359.387C35.6885 377.069 77.6315 381.995 117.617 371.078Z" fill="#F9A07B"/>
<path d="M127.335 381.718C89.36 376.454 49.592 385.816 18.7505 407.273C53.723 419.986 95.6795 411.742 127.335 381.718Z" fill="#F9A07B"/>
<path d="M139.177 404.96C101.57 404.804 64.5951 422.676 42.4911 451.697C59.2281 455.051 77.0016 453.045 92.3556 446.093C107.71 439.137 120.574 427.271 139.177 404.96Z" fill="#F9A07B"/>
<path d="M165.689 443.848C128.607 437.491 89.0975 448.981 62.36 473.903C78.32 479.965 96.1895 480.934 112.517 476.627C128.846 472.322 143.548 462.76 165.689 443.848Z" fill="#F9A07B"/>
<path d="M125.656 365.791C101.17 332.786 94.5246 288.311 108.436 250.475C119.059 268.465 128.225 287.485 132.503 307.702C136.781 327.92 135.95 349.475 125.656 365.791Z" fill="#F9A07B"/>
<path d="M140.615 397.634C134.816 362.569 146.805 325.405 172.13 300.01C175.044 336.287 163.944 373.244 140.615 397.634Z" fill="#F9A07B"/>
<path d="M13.4196 272.301C87.9456 319.985 146.23 391.059 176.996 471.81" stroke="#FF5538" stroke-miterlimit="10" stroke-linecap="round"/>
<path d="M110.75 267.875C119.815 304.683 125.33 342.263 127.196 379.953" stroke="#FF5538" stroke-miterlimit="10" stroke-linecap="round"/>
<path d="M166.562 314.246C163.592 343.943 154.415 372.968 139.754 399.112" stroke="#FF5538" stroke-miterlimit="10" stroke-linecap="round"/>
<path d="M15.9771 360.244C50.1441 366.74 84.872 370.262 119.606 370.78" stroke="#FF5538" stroke-miterlimit="10" stroke-linecap="round"/>
<path d="M36.566 404.355C68.0705 402.066 99.065 394.434 127.715 381.897" stroke="#FF5538" stroke-miterlimit="10" stroke-linecap="round"/>
<path d="M55.4406 446.399C84.5105 431.898 113.584 417.38 142.654 402.879" stroke="#FF5538" stroke-miterlimit="10" stroke-linecap="round"/>
<path d="M74.348 472.006C112.303 464.683 123.58 455.944 165.704 443.851" stroke="#FF5538" stroke-miterlimit="10" stroke-linecap="round"/>
<path d="M314.63 402.488C314.63 402.488 317.915 432.593 321.59 435.008C328.16 439.343 404.21 449.363 404.21 449.363L401.72 469.148C401.72 469.148 297.56 478.508 293.135 473.303C285.455 464.273 271.955 420.713 271.955 420.713L314.63 402.488Z" fill="#E09158"/>
<path d="M264.41 324.983L272.825 304.778C272.825 304.778 295.655 315.503 303.185 328.748C311.24 342.908 321.095 418.193 321.095 418.193C321.095 418.193 280.79 427.478 273.38 423.533C265.97 419.588 264.41 324.983 264.41 324.983Z" fill="#F2AE30"/>
<path d="M200.315 231.203C194.42 229.043 188.18 227.153 181.865 227.633C175.55 228.113 169.1 231.458 166.955 237.008C165.425 240.938 166.13 245.573 163.715 249.113C161.405 252.503 156.815 253.913 152.525 254.198C148.22 254.498 143.885 253.928 139.61 254.483C126.41 256.238 116.99 270.578 121.325 282.323C123.05 287.003 126.59 291.473 125.78 296.348C124.925 301.568 119.45 305.003 117.2 309.848C114.215 316.298 117.785 324.113 123.68 328.508C129.575 332.888 137.24 334.553 144.68 335.663C154.925 337.193 165.5 337.913 175.625 335.753C185.75 333.593 195.425 328.253 200.66 319.913C202.985 316.223 204.395 312.053 207.095 308.588C212.675 301.433 222.56 298.658 230.345 293.588C238.85 288.023 245.09 277.193 240.08 268.718C235.25 260.573 222.68 258.758 217.64 250.733C215.555 247.418 215.06 243.473 213.71 239.858C212.33 236.228 209.03 234.398 200.315 231.203Z" fill="#0A2240"/>
<path d="M234.665 331.118C236.15 332.828 237.905 334.703 240.335 334.868C242.9 335.048 245.045 333.233 246.695 331.478C255.215 322.463 260.84 311.393 263.12 299.978C261.005 298.778 258.965 297.623 257.12 296.543C255.41 295.523 254.12 294.098 253.385 292.433C252.875 291.203 252.695 289.913 252.83 288.563C254.03 277.283 255.095 270.998 259.055 259.553C240.245 255.308 222.5 250.268 212.3 241.748C211.055 246.998 209.585 257.273 206.45 267.458C203.105 278.243 197.885 288.908 189.035 293.498C206.405 303.758 221.9 316.508 234.665 331.118Z" fill="#F9A07B"/>
<path d="M252.83 288.578C252.695 289.928 252.875 291.233 253.385 292.448C242.255 305.948 217.37 288.308 206.45 267.473C209.585 257.288 211.055 247.013 212.3 241.763C222.485 250.283 240.245 255.338 259.055 259.568C255.095 271.013 254.03 277.283 252.83 288.578Z" fill="#E09158"/>
<path d="M283.82 451.778C281.36 468.068 298.94 485.603 299.375 494.303C262.04 494.303 183.83 496.583 144.005 491.168C142.19 481.118 161.855 458.513 161.855 436.193C161.855 433.238 161.735 429.998 161.495 426.518C160.865 416.558 159.395 404.708 157.76 392.558C153.32 359.963 147.41 325.103 151.775 317.873C160.325 303.788 180.32 294.218 190.235 290.108C193.64 288.698 195.86 287.933 196.025 287.843C208.46 309.053 233.765 327.143 243.32 326.333C245.975 326.123 253.85 323.378 259.055 297.173C261.08 298.328 263.105 299.393 265.115 300.428C275 305.573 284.27 309.818 286.94 316.433C293.99 333.848 300.905 377.753 299.375 393.368C297.83 409.118 291.5 421.148 287.06 436.958C286.025 440.663 285.08 444.593 284.315 448.823C284.12 449.768 283.97 450.758 283.82 451.778Z" fill="#FFC73C"/>
<path d="M299.375 494.303C262.04 494.303 183.83 496.583 144.005 491.168C142.19 481.118 161.855 458.513 161.855 436.193C161.855 433.238 161.735 429.998 161.495 426.518C160.865 416.558 159.395 404.708 157.76 392.558C164.825 400.013 175.13 368.513 179.69 377.738C204.365 427.538 223.82 440.633 257.63 440.633C267.71 440.633 277.01 439.238 287.06 436.958C286.025 440.663 285.08 444.593 284.315 448.823C284.135 449.783 283.97 450.773 283.82 451.793C281.36 468.053 298.94 485.588 299.375 494.303Z" fill="#FFBB33"/>
<path d="M265.115 300.428C263.51 312.083 258.755 327.788 244.925 331.928C226.235 337.523 199.19 302.603 190.235 290.108C193.64 288.698 195.86 287.933 196.025 287.843C208.46 309.053 233.765 327.143 243.32 326.333C245.975 326.123 253.85 323.378 259.055 297.173C261.08 298.313 263.105 299.378 265.115 300.428Z" fill="#FCE172"/>
<path d="M272.795 476.768L272.66 489.773L505.16 491.153L505.64 476.408L272.795 476.768Z" fill="#CC454E"/>
<path d="M605.93 360.743L600.755 355.493L431.405 354.383L346.445 477.248L350.885 480.818L605.93 360.743Z" fill="#CC454E"/>
<path d="M434.675 358.928L350.885 480.818L510.935 481.613L605.93 360.743L434.675 358.928Z" fill="#690002"/>
<path d="M475.115 436.733C485.404 436.733 493.745 432.563 493.745 427.418C493.745 422.273 485.404 418.103 475.115 418.103C464.826 418.103 456.485 422.273 456.485 427.418C456.485 432.563 464.826 436.733 475.115 436.733Z" fill="#FF0000"/>
<path d="M276.233 238.603C278.873 224.44 288.584 214.37 297.926 216.11C307.268 217.852 312.701 230.743 310.061 244.906C307.421 259.069 297.71 269.138 288.368 267.398C279.028 265.658 273.595 252.766 276.233 238.603Z" fill="#FF5538"/>
<path d="M310.085 200.453C308.345 212.783 302.84 226.373 294.815 241.388C291.995 229.088 290.195 214.103 287.705 199.118C285.17 184.103 281.945 169.088 276.35 156.818C275.09 154.103 273.725 151.508 272.24 149.108C275.555 148.793 278.915 149.108 282.11 149.993C287.105 151.328 291.785 153.908 295.61 157.358C301.97 163.013 306.23 170.723 308.765 178.853C310.85 185.603 311.225 192.773 310.085 200.453Z" fill="#690002"/>
<path d="M300.665 213.203C300.575 215.633 300.41 218.108 300.185 220.568C296.765 260.468 280.01 287.843 254.375 287.843C218.18 287.843 194.72 247.253 194.72 207.488C194.72 168.263 218.75 139.868 246.875 143.153C263.09 145.013 274.94 150.398 283.355 158.288C288.92 163.538 292.94 169.883 295.685 177.098C298.82 185.183 300.335 194.333 300.65 204.188C300.65 204.218 300.68 204.248 300.68 204.278C300.8 207.188 300.77 210.158 300.665 213.203Z" fill="#F9A07B"/>
<path d="M300.665 213.203C299.585 209.348 297.98 205.583 295.79 202.208C274.445 213.368 249.005 217.673 224.885 213.593C220.295 217.418 215.81 221.183 211.295 224.948C211.385 206.798 211.64 194.513 218.72 185.723C225.365 177.473 236.45 174.368 246.95 173.018C258.77 171.473 270.785 171.533 282.575 173.243C287.09 173.873 291.77 174.848 295.7 177.128C298.835 185.213 300.35 194.363 300.665 204.218C300.665 204.248 300.695 204.278 300.695 204.308C300.8 207.188 300.77 210.158 300.665 213.203Z" fill="#E09158"/>
<path d="M305.885 188.633C300.92 192.833 294.695 196.313 287.705 199.133C267.815 207.158 241.97 209.813 221.825 208.838C211.925 230.588 207.92 238.388 205.385 257.363C195.71 248.288 187.835 231.668 185.495 218.603C183.185 205.583 183.41 191.918 187.04 179.123C192.755 158.948 207.17 148.148 217.16 142.898C219.65 141.533 221.9 140.588 223.64 139.898C236.405 134.963 250.79 135.413 263.885 139.418C271.025 141.638 277.04 145.388 282.095 150.008C292.31 159.233 298.625 171.728 302.705 181.088C303.995 183.953 305.03 186.548 305.885 188.633Z" fill="#690002"/>
<path d="M310.085 200.453C309.26 196.088 308.03 191.858 306.29 187.778C305.315 185.468 304.115 183.233 302.72 181.073C298.175 173.933 291.56 168.053 283.565 165.458C281.285 162.263 278.885 159.383 276.365 156.833C267.29 147.608 256.64 142.328 245.36 140.483C235.97 138.968 226.205 139.823 217.19 142.883C219.68 141.518 221.93 140.573 223.67 139.883C236.435 134.948 250.82 135.398 263.915 139.403C271.055 141.623 277.07 145.373 282.125 149.993C287.12 151.328 291.8 153.908 295.625 157.358C301.985 163.013 306.245 170.723 308.78 178.853C310.85 185.603 311.225 192.773 310.085 200.453Z" fill="#690002"/>
<path d="M233.36 224.918C240.05 221.093 246.995 219.368 256.73 222.923" stroke="#690002" stroke-width="2" stroke-miterlimit="10" stroke-linecap="round"/>
<path d="M279.17 224.648C284.9 220.373 293.39 219.938 297.815 224.648" stroke="#690002" stroke-width="2" stroke-miterlimit="10" stroke-linecap="round"/>
<path d="M272.255 246.458C272.84 249.488 272.525 256.193 271.085 259.208" stroke="#CC454E" stroke-width="2" stroke-miterlimit="10" stroke-linecap="round"/>
<path d="M249.65 248.498C251.174 248.498 252.41 246.551 252.41 244.148C252.41 241.746 251.174 239.798 249.65 239.798C248.126 239.798 246.89 241.746 246.89 244.148C246.89 246.551 248.126 248.498 249.65 248.498Z" fill="#262D40"/>
<path d="M285.725 246.473C287.249 246.473 288.485 244.526 288.485 242.123C288.485 239.721 287.249 237.773 285.725 237.773C284.201 237.773 282.965 239.721 282.965 242.123C282.965 244.526 284.201 246.473 285.725 246.473Z" fill="#262D40"/>
<path d="M268.835 265.133C268.835 265.133 268.295 266.183 267.26 267.608C265.64 269.783 262.88 272.783 259.115 273.953H259.1C257.51 274.463 255.785 274.643 253.865 274.298C248.225 273.293 246.74 268.088 246.47 264.083C246.41 263.303 246.41 262.583 246.425 261.923C246.455 260.303 246.635 259.223 246.635 259.223C255.62 264.173 268.835 265.133 268.835 265.133Z" fill="#CC454E"/>
<path d="M259.1 273.938C257.51 274.448 255.785 274.628 253.865 274.283C248.225 273.278 246.74 268.073 246.47 264.068C249.2 264.398 251.84 265.448 254.03 267.113C256.325 268.868 258.08 271.253 259.1 273.938Z" fill="#E8729B"/>
<path d="M205.475 218.033C205.475 218.033 205.16 199.328 212.945 180.743C222.71 157.418 242.615 147.443 261.92 146.768C285.185 145.943 299.75 161.558 299.75 161.558C299.75 161.558 292.175 148.193 277.235 144.353C267.425 141.833 252.62 141.428 240.74 146.258C228.5 151.223 213.245 165.008 207.725 179.573C202.22 194.138 199.535 216.818 199.535 216.818L205.475 218.033Z" fill="#FF5538"/>
<path d="M205.076 266.723C215.038 265.687 221.841 252.612 220.272 237.518C218.703 222.424 209.355 211.027 199.394 212.063C189.432 213.098 182.629 226.174 184.198 241.268C185.767 256.362 195.114 267.759 205.076 266.723Z" fill="#FF5538"/>
<path d="M194.347 220.913C200.777 219.947 207.37 228.335 209.069 239.648C210.769 250.961 206.935 260.917 200.503 261.883C194.072 262.849 187.48 254.461 185.78 243.148C184.081 231.835 187.916 221.879 194.347 220.913Z" fill="#FF5538"/>
<path d="M262.07 288.398C267.405 288.398 271.73 285.705 271.73 282.383C271.73 279.061 267.405 276.368 262.07 276.368C256.735 276.368 252.41 279.061 252.41 282.383C252.41 285.705 256.735 288.398 262.07 288.398Z" fill="#F44946"/>
<path d="M213.545 262.268C213.545 262.268 227.735 280.508 252.41 282.383" stroke="#F44946" stroke-width="2" stroke-miterlimit="10" stroke-linecap="round"/>
<path d="M272.66 442.043L271.73 466.028C271.73 466.028 184.985 492.023 170.66 483.803C163.67 479.783 157.145 457.673 152.27 436.088C147.17 413.408 143.9 391.328 143.9 391.328L194.75 381.368C194.75 381.368 194.78 412.373 196.505 430.298C197.12 436.973 198.005 441.833 199.19 442.628C203.675 445.583 272.66 442.043 272.66 442.043Z" fill="#F9A07B"/>
<path d="M196.505 430.268C187.265 433.268 169.43 437.903 152.27 436.073C147.17 413.393 143.9 391.313 143.9 391.313L194.75 381.353C194.75 381.338 194.78 412.343 196.505 430.268Z" fill="#E09158"/>
<path d="M270.185 442.283C283.085 439.523 304.925 432.893 313.985 430.613C320.42 428.993 337.175 437.663 341.6 445.838C343.535 449.408 345.365 469.628 338.66 467.543C335.3 466.493 335.855 457.823 334.805 454.283C333.95 451.403 331.22 448.613 327.065 446.213C329.84 453.128 329.735 459.158 329.435 466.628C329.375 468.278 329.27 470.003 328.475 471.428C327.665 472.853 325.925 473.873 324.425 473.243C322.895 472.613 322.37 470.708 322.025 469.043C320.84 463.283 319.64 457.523 319.16 451.013C319.28 457.418 319.145 463.838 318.74 470.228C318.44 475.118 316.01 477.803 313.025 476.948C311.69 476.573 311.15 475.343 310.58 473.723C309.68 476.858 307.43 480.323 304.52 479.003C302.75 478.208 301.655 471.818 301.97 465.248C296.39 468.713 290.09 470.183 282.83 470.513C276.32 470.813 269.66 469.598 265.745 465.173C266.135 458.258 268.415 448.028 270.185 442.283Z" fill="#F9A07B"/>
<path d="M310.715 472.733C311.15 467.543 310.7 462.278 309.38 457.268" stroke="#CC454E" stroke-miterlimit="10" stroke-linecap="round"/>
<path d="M189.035 331.058C185.345 320.663 171.83 299.393 171.83 299.393C171.83 299.393 151.205 307.973 143.885 322.538C131.495 347.198 137.795 417.998 137.795 417.998C154.49 424.988 188 425.093 202.265 423.083C202.265 423.083 196.43 351.833 189.035 331.058Z" fill="#FFC73C"/>
<path d="M191.66 335.408C197.285 362.333 200.3 387.443 201.26 412.043" stroke="#F2AE30" stroke-miterlimit="10" stroke-linecap="round"/>
<path d="M633.11 486.878H41.6901V501.713H633.11V486.878Z" fill="#690002"/>
</svg>